<svg width="127" height="18" viewBox="0 0 127 18" fill="none" xmlns="http://www.w3.org/2000/svg">
<g clip-path="url(#clip0_5_7)">
<path d="M12.2975 9.15247L10.4457 10.2367V14.3979L13.5925 12.5534V5.75153L7.80768 2.36753L2.027 5.74941V12.5576L5.1801 14.3979V10.2367L3.31576 9.15247V6.52235L7.20501 8.79882V17.9513L0 13.7287V4.57624L7.80768 0L15.6175 4.57624V13.7287L8.41245 17.9513V8.79882L12.2975 6.52235V9.15247Z" fill="#2F80ED"/>
<path d="M3.3158 6.5224L7.80772 3.74405L12.2976 6.5224L10.0516 7.83746L7.80772 6.5224L5.56176 7.83746L3.3158 6.5224Z" fill="#323450"/>
<path fill-rule="evenodd" clip-rule="evenodd" d="M21.8397 9.66341H26.8164C28.4157 9.66341 28.3634 11.6385 26.8164 11.6499H19.6651V13.5454H27.8852C29.6899 13.3899 30.5866 12.1048 30.6127 10.8083C30.635 9.39426 29.6 7.96506 27.5301 7.96506H22.6728C21.2007 7.96506 21.253 6.21364 22.6728 6.21364H29.9887V4.44705H21.496C19.8332 4.59112 19.0037 5.77389 18.9776 6.96805C18.9514 8.27593 19.9117 9.64067 21.8284 9.65204L21.8397 9.66341ZM31.9988 4.44705V6.34254H35.7352V13.5454H38.3059V6.34254H42.0422V4.44705H31.9988ZM42.0385 13.5454C42.0385 13.5454 44.2803 7.78309 45.1845 5.90279C45.7749 4.69725 46.5782 4.46221 47.8448 4.46221H49.4441C50.7106 4.46221 51.5141 4.69725 52.1042 5.90279C53.0235 7.79827 55.2505 13.5454 55.2505 13.5454H52.4331C52.4331 13.5454 50.9385 9.54969 49.9671 7.3168C49.6981 6.70645 49.3918 6.55862 48.6371 6.55862C47.8822 6.55862 47.5721 6.71404 47.3068 7.3168C46.3317 9.54969 44.8371 13.5454 44.8371 13.5454H42.0385ZM56.0462 4.44705L56.0723 13.5454H58.7326V13.4885L58.7066 6.23259H62.4019C62.5545 6.21821 62.7086 6.2374 62.8536 6.28883C62.9983 6.34025 63.1305 6.42273 63.241 6.53065C63.3518 6.63854 63.4381 6.76935 63.4944 6.91417C63.5507 7.059 63.5757 7.21441 63.5676 7.36989V7.57837C63.5791 7.73466 63.5563 7.89157 63.5011 8.03795C63.4458 8.1843 63.3595 8.3165 63.2483 8.42512C63.137 8.53373 63.0033 8.61609 62.8571 8.66632C62.7107 8.71655 62.5554 8.73338 62.4019 8.71568H59.181L63.9636 13.5529H66.8669L63.8366 10.4557C65.1406 10.3534 66.1383 9.50797 66.1383 8.22284V6.70645C66.1383 5.38341 64.9986 4.46221 63.5676 4.46221L56.0462 4.44705ZM67.5843 4.44705V6.34254H71.3206V13.5454H73.8911V6.34254H77.6275V4.44705H67.5843ZM78.954 4.44705V9.56106C78.954 11.8697 80.4784 13.5302 83.5235 13.5302H86.1951C89.2402 13.5302 90.761 11.8697 90.761 9.56106V4.44705H88.1155V9.2085C88.1155 10.7931 87.2301 11.6385 85.5674 11.6385H84.1476C82.485 11.6385 81.6031 10.7931 81.6031 9.2085V4.44705H78.954ZM94.9944 13.5454V10.0577H95.3679H99.3099C101.342 10.0577 102.377 8.68156 102.392 7.30543C102.407 5.92932 101.38 4.45084 99.3099 4.45084H92.3115V13.5491L94.9944 13.5454ZM94.9944 6.1871H98.6298C100.214 6.1871 100.165 8.17356 98.6298 8.17356H94.9944V6.1871Z" fill="#2F80ED"/>
<path fill-rule="evenodd" clip-rule="evenodd" d="M103.852 8.96965V10.7111H111.208V8.96965H103.852ZM113.016 13.5529H115.669V4.44705H113.016V13.5529ZM116.912 4.44705V6.3441H120.655V13.5529H123.257V6.3441H127V4.44705H116.912Z" fill="#2F80ED"/>
</g>
<defs>
<clipPath id="clip0_5_7">
<rect width="127" height="18" fill="white"/>
</clipPath>
</defs>
</svg>
